<?xml version="1.0" encoding="UTF-8"?>
<svg width="512" height="512" viewBox="0 0 512 512" fill="none" xmlns="http://www.w3.org/2000/svg">
  <rect width="512" height="512" rx="128" fill="#000000"/>
  <path d="M256 96C181.333 96 120 157.333 120 232C120 293.333 162.667 346.667 220 364V416C220 424 226.667 430.667 234.667 430.667C242.667 430.667 249.333 424 249.333 416V364C306.667 346.667 349.333 293.333 349.333 232C392 232 392 96 256 96ZM256 340C198.667 340 152 293.333 152 236C152 178.667 198.667 132 256 132C313.333 132 360 178.667 360 236C360 293.333 313.333 340 256 340Z" fill="#00ED64"/>
  <path d="M256 172C220 172 192 200 192 236C192 272 220 300 256 300C292 300 320 272 320 236C320 200 292 172 256 172ZM256 276C234.667 276 216 257.333 216 236C216 214.667 234.667 196 256 196C277.333 196 296 214.667 296 236C296 257.333 277.333 276 256 276Z" fill="#00ED64"/>
</svg> 